<svg width="140" height="25" viewBox="0 0 140 25" fill="none" xmlns="http://www.w3.org/2000/svg">
<path d="M87.5102 24.8667C86.4077 24.8667 85.3865 24.5854 84.4467 24.0226C83.5068 23.4417 82.7748 22.7156 82.2507 21.8443V24.5944H80.5969V4.71684H82.4405V13.3759C83.073 12.4137 83.8322 11.6422 84.7178 11.0613C85.6034 10.4623 86.6336 10.1628 87.8084 10.1628C88.8025 10.1628 89.6881 10.3715 90.4653 10.789C91.2605 11.2066 91.9383 11.7693 92.4986 12.4773C93.0589 13.1671 93.4836 13.9568 93.7728 14.8463C94.062 15.7176 94.2066 16.6162 94.2066 17.542C94.2066 18.5404 94.0349 19.4753 93.6915 20.3466C93.3661 21.218 92.8962 21.9986 92.2817 22.6884C91.6672 23.36 90.9533 23.8956 90.1399 24.2949C89.3447 24.6761 88.4681 24.8667 87.5102 24.8667ZM87.0764 23.233C87.8355 23.233 88.5404 23.0787 89.1911 22.7701C89.8417 22.4615 90.402 22.0349 90.8719 21.4903C91.3419 20.9457 91.7033 20.3376 91.9564 19.6659C92.2094 18.9761 92.3359 18.2681 92.3359 17.542C92.3359 16.5436 92.119 15.6087 91.6853 14.7373C91.2696 13.8478 90.6822 13.1399 89.9231 12.6134C89.182 12.0688 88.3054 11.7965 87.2933 11.7965C86.5703 11.7965 85.8926 11.9599 85.26 12.2867C84.6455 12.6134 84.0942 13.0491 83.6062 13.5937C83.1363 14.1201 82.7477 14.701 82.4405 15.3364V19.7476C82.5128 20.2377 82.7025 20.7006 83.0098 21.1363C83.317 21.5538 83.6966 21.9169 84.1484 22.2255C84.6184 22.5341 85.1064 22.7791 85.6124 22.9607C86.1185 23.1422 86.6065 23.233 87.0764 23.233Z" fill="#06004F"/>
<path d="M96.1907 20.51C96.1907 19.6205 96.4438 18.8581 96.9498 18.2227C97.4559 17.5692 98.1518 17.07 99.0374 16.7251C99.9411 16.362 100.98 16.1805 102.155 16.1805C102.842 16.1805 103.556 16.235 104.297 16.3439C105.038 16.4528 105.698 16.6162 106.276 16.834V15.6359C106.276 14.4378 105.924 13.4848 105.219 12.7768C104.514 12.0688 103.538 11.7148 102.291 11.7148C101.532 11.7148 100.782 11.8601 100.04 12.1505C99.3175 12.4228 98.5584 12.8313 97.7632 13.3759L97.0583 12.0688C97.9801 11.4335 98.8838 10.9615 99.7694 10.6529C100.655 10.3261 101.559 10.1628 102.48 10.1628C104.216 10.1628 105.589 10.662 106.601 11.6604C107.613 12.6588 108.12 14.0384 108.12 15.7993V22.3616C108.12 22.6158 108.174 22.8064 108.282 22.9334C108.391 23.0424 108.562 23.1059 108.797 23.1241V24.5944C108.598 24.6126 108.427 24.6308 108.282 24.6489C108.138 24.6671 108.029 24.6671 107.957 24.6489C107.505 24.6308 107.162 24.4855 106.927 24.2132C106.692 23.9409 106.565 23.6505 106.547 23.3419L106.52 22.3072C105.887 23.1241 105.065 23.7594 104.053 24.2132C103.041 24.6489 102.011 24.8667 100.962 24.8667C100.059 24.8667 99.2362 24.6761 98.4952 24.2949C97.7722 23.8956 97.2029 23.3691 96.7872 22.7156C96.3896 22.0439 96.1907 21.3087 96.1907 20.51ZM105.652 21.5992C105.851 21.3451 106.005 21.1 106.113 20.864C106.222 20.628 106.276 20.4192 106.276 20.2377V18.1683C105.661 17.9323 105.02 17.7507 104.351 17.6237C103.7 17.4966 103.041 17.4331 102.372 17.4331C101.053 17.4331 99.9863 17.6963 99.1729 18.2227C98.3596 18.7492 97.9529 19.4662 97.9529 20.3739C97.9529 20.9003 98.0885 21.3995 98.3596 21.8715C98.6307 22.3253 99.0283 22.7065 99.5525 23.0151C100.077 23.3056 100.691 23.4508 101.396 23.4508C102.282 23.4508 103.104 23.2784 103.863 22.9334C104.64 22.5885 105.237 22.1438 105.652 21.5992Z" fill="#06004F"/>
<path d="M123.977 24.5944H122.134V16.6706C122.134 15.0006 121.89 13.7843 121.402 13.0219C120.914 12.2413 120.146 11.851 119.097 11.851C118.374 11.851 117.66 12.0325 116.956 12.3956C116.251 12.7405 115.627 13.2216 115.085 13.8388C114.561 14.4378 114.181 15.1276 113.946 15.9082V24.5944H112.103V10.4078H113.784V13.6209C114.163 12.9311 114.66 12.3321 115.275 11.8238C115.889 11.2973 116.585 10.8889 117.362 10.5984C118.139 10.308 118.944 10.1628 119.775 10.1628C120.552 10.1628 121.212 10.308 121.754 10.5984C122.296 10.8889 122.73 11.3064 123.055 11.851C123.381 12.3774 123.616 13.0219 123.76 13.7843C123.905 14.5286 123.977 15.3636 123.977 16.2894V24.5944Z" fill="#06004F"/>
<path d="M137.994 24.5944L132.761 17.3241L129.752 20.156V24.5944H127.909V4.71684H129.752V18.1683L137.75 10.4351H139.783L134.008 16.235L140 24.5944H137.994Z" fill="#06004F"/>
<path d="M19.193 18.5917L17.0045 17.6081C13.5801 18.6211 10.7775 20.7253 10.7775 22.6121C10.7775 23.8406 12.0726 24.4343 13.8938 24.4343C15.0933 24.4343 15.7036 24.2834 16.3789 24.0992C15.4625 23.9268 14.6265 23.4585 14.6265 22.7787C14.6265 21.9107 15.7801 21.0212 17.741 20.4589L19.193 18.5897V18.5917Z" fill="#06004F"/>
<path d="M19.9642 12.0629L17.0832 10.5209C10.6438 11.914 4.44934 16.2832 4.44934 19.7707C4.44934 22.0082 7.60015 23.2896 9.87286 24.0126C8.63129 23.5913 7.61928 23.0094 7.61928 21.636C7.61928 17.9936 15.2753 14.5296 17.8312 14.2847L19.9642 12.0629Z" fill="#06004F"/>
<path d="M10.3086 0.7171L8.7782 0C2.0978 2.9742 -0.119435 5.5879 0.0049136 11.1738C0.14648 8.37205 3.45033 4.8512 9.55108 2.32764L10.3086 0.7171Z" fill="#06004F"/>
<path d="M20.5187 4.88651L17.9743 3.15842C7.50417 4.29676 0.575073 10.6253 0.575073 14.25C0.575073 16.1407 2.72152 19.0365 2.72152 19.0365C2.72152 19.0365 2.26622 18.4193 2.26622 17.4201C2.13613 15.2178 6.43094 8.78158 18.3225 6.86931C19.5373 5.78387 20.5187 4.88651 20.5187 4.88651Z" fill="#06004F"/>
<path d="M26.4316 22.3119L28.9167 19.6257C29.9938 20.7856 31.6505 21.4498 33.7338 21.4498C35.1839 21.4498 35.9969 21.0109 35.9969 20.2331C35.9969 19.3573 35.0729 19.1026 32.8366 18.7773C29.4964 18.311 27.3021 16.9395 27.3021 13.9144C27.3021 10.8892 29.7738 9.07883 33.6649 9.07883C36.3566 9.07883 38.373 9.87038 39.9876 11.3555L37.6556 14.028C36.5651 13.0386 35.1571 12.6291 33.6247 12.6291C32.3832 12.6291 31.4706 12.968 31.4706 13.7459C31.4706 14.5942 32.4654 14.8489 34.6731 15.1605C37.5159 15.57 40.1674 16.5888 40.1674 19.9098C40.1674 23.2308 37.338 25 33.6515 25C30.2979 25 27.9372 23.8832 26.4316 22.3138V22.3119Z" fill="#06004F"/>
<path d="M50.762 24.3753C49.7404 24.7279 48.3592 24.9258 47.3529 24.9258C44.4948 24.9258 42.4517 23.6817 42.4517 20.4155V5.82079C42.4517 5.40934 42.7042 5.04295 43.0811 4.90384L46.7293 3.56369V9.53169H50.2914V13.1094H46.7293V19.2733C46.7293 20.829 47.198 21.1953 48.3994 21.1953C48.8279 21.1953 49.2545 21.1522 49.9049 20.97L50.7601 24.3772L50.762 24.3753Z" fill="#06004F"/>
<path d="M59.5085 21.4209C60.8056 21.4209 61.8826 20.9977 62.8353 19.7672L65.7068 22.0008C64.2165 23.9386 62.0491 24.9123 59.3153 24.9123C54.856 24.9123 51.7377 21.8441 51.7377 17.1927C51.7377 12.5414 54.7201 9.14787 59.013 9.14787C63.3059 9.14787 66.2195 12.512 66.2195 17.3338V18.3369H56.1434C56.4342 20.1748 57.4271 21.4189 59.5123 21.4189L59.5085 21.4209ZM56.1817 15.5254H61.8271C61.4828 13.6601 60.4325 12.6413 58.9977 12.6413C57.5629 12.6413 56.5414 13.617 56.1817 15.5254Z" fill="#06004F"/>
<path d="M73.1334 9.53199H76.6113V13.1097H73.1334V24.5186H68.8539V8.61308C68.8539 5.41748 71.0348 3.76384 74.1129 3.76384C74.9833 3.76384 75.9494 3.89119 76.9155 4.18705L76.2115 7.41008C75.6452 7.28273 75.1632 7.21219 74.7767 7.21219C73.5619 7.21219 73.1334 7.80586 73.1334 9.06372V9.53003V9.53199Z" fill="#06004F"/>
</svg>
